<svg width="312.5" height="312.5" viewBox="0 0 312.5 312.5" class="css-1j8o68f"><defs id="SvgjsDefs1317"></defs><g id="SvgjsG1318" featurekey="rootContainer" transform="matrix(3.001921273588553,0,0,3.001921273588553,0,0)" fill="#111111"><path xmlns="http://www.w3.org/2000/svg" d="M0 0v104.1h104.1V0zm101.7 101.7H2.4V2.4h99.3z"></path></g><g id="SvgjsG1319" featurekey="symbolFeature-0" transform="matrix(0.0023364616868435115,0,0,0.0023364616868435115,82.82706674418785,50.58110761281783)" fill="#111111"><defs xmlns="http://www.w3.org/2000/svg"></defs><g xmlns="http://www.w3.org/2000/svg"><path class="fil0" d="M11364 26256c-279,40 -541,-136 -584,-391 -43,-256 148,-495 427,-534 2140,-307 4332,-205 6312,333 1791,486 3411,1328 4671,2544 591,570 1102,1222 1513,1956 1640,-783 3305,-1275 4916,-1467 2037,-243 3988,-6 5700,727 921,394 1771,930 2525,1610 -382,-2756 647,-5588 1679,-8426 1096,-3013 2194,-6033 1488,-8849 -592,-14 -1202,-58 -1812,-102 -75,-5 -151,-11 -226,-16 -19,574 -222,1055 -542,1425 -301,347 -704,592 -1156,721 -444,126 -934,141 -1419,29 -643,-147 -1277,-514 -1776,-1131 -353,228 -719,455 -1137,700 -1024,600 -1919,606 -2586,278 -321,-158 -582,-393 -775,-678 -184,-273 -304,-591 -351,-928 -103,-738 144,-1580 833,-2233 -1111,-2058 -283,-4279 927,-6048 1205,-1762 2827,-3098 3190,-3308 23,-13 42,-24 57,-31l87 -43 98 -10c1890,-202 3828,91 5590,571 1727,471 3288,1124 4462,1663 4651,1681 4713,5157 4776,8675 20,1130 40,2265 226,3323 560,3190 1202,6386 1846,9587 420,2091 841,4184 1216,6148 483,2536 771,5047 509,7490 -260,2419 -1059,4758 -2735,6966 29,1965 -1403,2647 -3310,2733 -1789,80 -4002,-406 -5660,-770 -613,-135 -1147,-252 -1553,-315l35 -192c-2724,3160 -8854,3680 -14668,4173 -6328,537 -12256,1039 -12297,4876 -2,259 -233,467 -516,465 -283,-2 -510,-213 -508,-472 50,-4684 6425,-5224 13228,-5801 6394,-542 13191,-1119 14800,-5213 95,-243 388,-370 654,-283 266,87 404,355 309,599 -138,352 -308,681 -504,988 356,68 784,162 1256,266 1596,351 3726,819 5375,745 1114,-50 1998,-372 2256,-1222 55,-231 80,-452 74,-663 0,-10 -1,-20 -1,-31l-4 -73c-7,-89 -19,-177 -37,-263 -78,-373 -266,-727 -570,-1067 -180,-201 -147,-497 72,-661 219,-164 543,-135 722,66 232,259 415,528 550,808 1198,-1834 1797,-3761 2011,-5748 251,-2338 -30,-4772 -500,-7241 -407,-2136 -810,-4137 -1212,-6137 -644,-3203 -1287,-6403 -1850,-9609 -196,-1120 -217,-2290 -238,-3456 -57,-3207 -113,-6375 -4147,-7823l-19 -7 -25 -11c-1134,-522 -2645,-1156 -4316,-1611 -1609,-439 -3364,-710 -5061,-550 -418,283 -1748,1434 -2797,2967 -1016,1485 -1737,3311 -968,4958 684,-407 1525,-803 2431,-1230l148 -70c-116,-110 -236,-204 -364,-279 -249,-146 -540,-226 -904,-218 -283,6 -517,-199 -524,-457 -7,-259 217,-473 500,-479 587,-13 1066,120 1482,364 255,150 480,339 689,561 204,-207 398,-496 596,-791l36 -53c-13,-24 -23,-49 -32,-76 -168,-534 -138,-1223 294,-1914 322,-515 871,-1033 1735,-1483 246,-128 559,-49 698,176 140,225 53,511 -193,639 -685,357 -1110,750 -1349,1134 -67,106 -119,212 -158,315 538,-444 1238,-660 2295,-319 267,85 408,352 315,597 -93,244 -385,373 -652,288 -1084,-349 -1615,441 -2118,1188 -374,556 -737,1095 -1313,1372l-5 3 -3 1c-386,184 -545,259 -703,334 -1058,498 -2024,954 -2704,1412 -676,456 -923,1125 -844,1695 28,205 99,395 206,554 99,146 230,266 389,344 358,176 884,146 1546,-242 837,-491 1463,-911 2214,-1416 126,-85 256,-172 391,-263l72 -48 86 -23c1235,-334 2681,-229 4126,-124 2577,187 5155,373 5803,-2304 61,-252 334,-412 610,-356 276,56 450,306 389,558 -569,2351 -2136,3012 -4024,3125 674,3005 -446,6084 -1563,9158 -1260,3466 -2517,6923 -1018,10067 33,52 67,105 99,158 814,1325 1393,2948 1667,4875 37,257 -161,492 -441,525 -280,33 -537,-147 -574,-404 -256,-1801 -793,-3311 -1547,-4537 -34,-55 -68,-109 -103,-163l-1 -1c-949,-1475 -2220,-2520 -3692,-3150 -1532,-656 -3290,-866 -5135,-646 -1509,180 -3077,648 -4630,1397 256,611 449,1270 571,1980 318,1856 144,4052 -684,6601 -80,248 -365,391 -636,318 -272,-73 -427,-334 -347,-582 783,-2412 951,-4470 656,-6194 -133,-775 -359,-1482 -666,-2123 -8,-15 -15,-30 -22,-45 -396,-814 -920,-1521 -1546,-2124 -1132,-1092 -2595,-1850 -4218,-2291 -1837,-499 -3874,-593 -5867,-308zm2040 1882c-177,12 -330,-109 -344,-271 -13,-162 119,-302 296,-314 1100,-78 2329,-1 3399,314 915,270 1716,714 2233,1385 102,132 67,315 -78,409 -145,93 -345,61 -446,-71 -429,-557 -1114,-932 -1904,-1165 -984,-290 -2127,-359 -3156,-286zm28698 -13181c-21,-161 105,-307 281,-326 176,-19 335,96 356,257 81,627 155,1235 173,1853 18,619 -21,1230 -168,1845 -37,158 -208,259 -381,225 -173,-34 -283,-190 -246,-349 136,-570 173,-1135 156,-1708 -17,-574 -90,-1175 -171,-1797zm-5151 -1379c-879,-41 -1716,-29 -2423,146l-317 213c-102,68 -201,135 -299,201 346,423 770,672 1194,769 300,69 598,61 865,-15 259,-74 488,-212 658,-408 195,-224 316,-529 321,-905zm-3224 -10315c1,0 7,-4 4,-2l-4 2zm-9564 40918c1008,982 2496,1874 4265,2173 1446,244 3087,88 4817,-746 250,-121 560,-33 692,196 132,229 36,513 -215,633 -1956,943 -3824,1117 -5479,838 -2056,-347 -3773,-1397 -4911,-2537 -533,325 -1095,607 -1691,852 -1958,803 -4275,1188 -7162,1315 -283,12 -522,-188 -536,-446 -13,-259 205,-478 488,-490 2761,-122 4960,-483 6792,-1234 1810,-742 3277,-1874 4596,-3545 165,-210 485,-258 714,-106 229,151 282,444 116,654 -769,974 -1587,1781 -2488,2444z" style="fill: #111111; fill-rule: nonzero;"></path></g></g><g id="SvgjsG1320" featurekey="nameFeature-0" transform="matrix(0.6309546732391111,0,0,0.6309546732391111,55.798094396252935,198.2014016588362)" fill="#111111"><path d="M0.96 12.36 l11.08 0 l0.64 3.88 l-1.8 -0.4 l-2.24 0 l-0.4 0.4 l0 22.08 l0.44 1.68 l-4.32 0 l0.44 -1.68 l0 -22.08 l-0.4 -0.4 l-2.28 0 l-1.8 0.4 z M19.41 38.32 l0 -24.24 l-0.44 -1.72 l4.32 0 l-0.44 1.72 l0 10 l0.4 0.4 l2.64 0 l0.4 -0.4 l0 -10 l-0.4 -1.72 l4.32 0 l-0.44 1.72 l0 24.24 l0.44 1.68 l-4.32 0 l0.4 -1.68 l0 -10 l-0.4 -0.4 l-2.64 0 l-0.4 0.4 l0 10 l0.44 1.68 l-4.32 0 z M48.379999999999995 36.12 l-0.64 3.88 l-10.36 0 l0.44 -1.72 l0 -24.24 l-0.44 -1.68 l10.36 0 l0.64 3.84 l-1.8 -0.4 l-4.92 0 l-0.4 0.4 l0 7.84 l0.4 0.4 l1.36 0 l1.72 -0.44 l0 4.32 l-1.72 -0.44 l-1.36 0 l-0.4 0.4 l0 7.84 l0.4 0.4 l4.92 0 z M67.96 38.28 l0 -24.24 l-0.44 -1.68 l10.36 0 l0.64 3.84 l-1.8 -0.4 l-4.92 0 l-0.4 0.4 l0 7.84 l0.4 0.4 l1.36 0 l1.68 -0.44 l0 4.32 l-1.68 -0.44 l-1.36 0 l-0.4 0.4 l0 10 l0.44 1.72 l-4.32 0 z M88.77 14.079999999999998 l0 24.24 l0.44 1.68 l-4.32 0 l0.44 -1.68 l0 -24.24 l-0.44 -1.72 l4.32 0 z M96.13999999999999 12.36 l11.08 0 l0.64 3.88 l-1.8 -0.4 l-2.24 0 l-0.4 0.4 l0 22.08 l0.44 1.68 l-4.32 0 l0.44 -1.68 l0 -22.08 l-0.4 -0.4 l-2.28 0 l-1.8 0.4 z M118.02999999999999 25.439999999999998 l0 12.88 l0.44 1.68 l-4.32 0 l0.44 -1.68 l0 -24.24 l-0.44 -1.72 l3.88 0 l3.84 14.56 l0.6 2.44 l-0.16 -2.44 l0 -12.84 l-0.44 -1.72 l4.32 0 l-0.44 1.72 l0 24.24 l0.44 1.68 l-3.88 0 l-3.84 -14.56 l-0.6 -2.44 z M144.35999999999999 36.12 l-0.64 3.88 l-10.36 0 l0.44 -1.72 l0 -24.24 l-0.44 -1.68 l10.36 0 l0.64 3.84 l-1.8 -0.4 l-4.92 0 l-0.4 0.4 l0 7.84 l0.4 0.4 l1.36 0 l1.72 -0.44 l0 4.32 l-1.72 -0.44 l-1.36 0 l-0.4 0.4 l0 7.84 l0.4 0.4 l4.92 0 z M161.33 14.079999999999998 l0 3.52 l0.44 1.68 l-4.32 0 l0.4 -1.68 l0 -1.36 l-0.4 -0.4 l-2.64 0 l-0.4 0.4 l0 7.84 l0.4 0.4 l4.8 0 l1.72 1.72 l0 12.08 l-1.72 1.72 l-6.92 0 l-1.76 -1.72 l0 -3.48 l-0.4 -1.68 l4.32 0 l-0.44 1.68 l0 1.36 l0.4 0.4 l2.64 0 l0.4 -0.4 l0 -7.84 l-0.4 -0.4 l-4.76 0 l-1.76 -1.72 l0 -12.12 l1.76 -1.72 l6.92 0 z M179.34 14.079999999999998 l0 3.52 l0.44 1.68 l-4.32 0 l0.4 -1.68 l0 -1.36 l-0.4 -0.4 l-2.64 0 l-0.4 0.4 l0 7.84 l0.4 0.4 l4.8 0 l1.72 1.72 l0 12.08 l-1.72 1.72 l-6.92 0 l-1.76 -1.72 l0 -3.48 l-0.4 -1.68 l4.32 0 l-0.44 1.68 l0 1.36 l0.4 0.4 l2.64 0 l0.4 -0.4 l0 -7.84 l-0.4 -0.4 l-4.76 0 l-1.76 -1.72 l0 -12.12 l1.76 -1.72 l6.92 0 z M199.95999999999998 38.28 l0 -24.24 l-0.44 -1.68 l10.36 0 l0.64 3.84 l-1.8 -0.4 l-4.92 0 l-0.4 0.4 l0 7.84 l0.4 0.4 l1.36 0 l1.68 -0.44 l0 4.32 l-1.68 -0.44 l-1.36 0 l-0.4 0.4 l0 10 l0.44 1.72 l-4.32 0 z M222.77 13.920000000000002 l4.12 23.68 l0.84 2.4 l-4.32 0 l0.28 -1.16 l-0.92 -5.28 l-0.48 -0.48 l-3 0 l-0.48 0.44 l-0.88 5.32 l0.28 1.16 l-4.32 0 l0.8 -2.36 l4.08 -23.72 l-0.36 -1.56 l4.72 0 z M220.45 23.72 l-0.96 5.6 l0.36 0.28 l1.84 0 l0.36 -0.2 l-0.96 -5.68 l-0.32 -3.08 z M242.42 40 l-6.92 0 l-1.72 -1.72 l0 -24.2 l1.72 -1.72 l6.92 0 l1.72 1.72 l0 3.48 l0.44 1.68 l-4.32 0 l0.44 -1.68 l0 -1.36 l-0.4 -0.4 l-2.68 0 l-0.4 0.4 l0 19.92 l0.4 0.4 l2.68 0 l0.4 -0.4 l0 -1.36 l-0.44 -1.68 l4.32 0 l-0.44 1.68 l0 3.52 z M251.23 12.36 l11.08 0 l0.64 3.88 l-1.8 -0.4 l-2.24 0 l-0.4 0.4 l0 22.08 l0.44 1.68 l-4.32 0 l0.44 -1.68 l0 -22.08 l-0.4 -0.4 l-2.28 0 l-1.8 0.4 z M270.96 12.36 l6.92 0 l1.72 1.72 l0 24.2 l-1.72 1.72 l-6.92 0 l-1.72 -1.72 l0 -24.2 z M276.11999999999995 36.16 l0 -19.92 l-0.4 -0.4 l-2.64 0 l-0.4 0.4 l0 19.92 l0.4 0.4 l2.64 0 z M290.6499999999999 38.32 l0.44 1.68 l-4.32 0 l0.44 -1.68 l0 -24.24 l-0.44 -1.72 l9.08 0 l1.72 1.72 l0 12.12 l-1.72 1.72 l1.48 10.32 l0.56 1.76 l-4.32 0 l0.32 -1.64 l-1.48 -10.12 l-0.28 -0.32 l-1.08 0 l-0.4 0.4 l0 10 z M290.6499999999999 24.08 l0.4 0.4 l2.68 0 l0.4 -0.4 l0 -7.84 l-0.4 -0.4 l-2.68 0 l-0.4 0.4 l0 7.84 z M316.41999999999996 13.879999999999999 l-4.32 14.32 l0 10.08 l0.44 1.72 l-4.32 0 l0.44 -1.72 l0 -10.24 l-4.32 -14.32 l-0.88 -1.36 l5.04 0 l-0.4 1.2 l2.12 8.12 l0.16 1.24 l0.16 -1.24 l2.12 -8.12 l-0.44 -1.2 l5.08 0 z"></path></g><g id="SvgjsG1321" featurekey="sloganFeature-0" transform="matrix(0.8315157882182475,0,0,0.8315157882182475,84.0000000991244,238.95886527454763)" fill="#111111"><path d="M1.16 6.140000000000001 l0 6.06 l6.02 0 l0 1.06 l-6.02 0 l0 6.74 l-1.16 0 l0 -15 l7.28 0 l0 1.14 l-6.12 0 z M10.273000000000001 20 l0 -15 l1.28 0 l0 15 l-1.28 0 z M19.266 6.1 l0 13.9 l-1.16 0 l0 -13.9 l-3.26 0 l0 -1.1 l7.68 0 l0 1.1 l-3.26 0 z M32.359 20 l-5.8 -12.88 l0 12.88 l-1.1 0 l0 -15 l1.18 0 l5.8 12.3 l0.14 -12.3 l1.08 0 l0 15 l-1.3 0 z M37.152 20 l0 -15 l7.36 0 l0 1.16 l-6.32 0 l0 5.7 l6.26 0 l0 0.92 l-6.26 0 l0 6.06 l6.46 0 l0 1.16 l-7.5 0 z M50.98500000000001 20.18 c-0.65334 0 -1.2335 -0.086738 -1.7401 -0.26008 s-0.93332 -0.45 -1.28 -0.83 s-0.60332 -0.87666 -0.76998 -1.49 s-0.23666 -1.3533 -0.21 -2.22 l1.2 0 c0 0.42666 0.02 0.87 0.06 1.33 s0.14666 0.88 0.32 1.26 s0.43668 0.69 0.79002 0.93 s0.84334 0.36 1.47 0.36 c0.53334 0 0.98668 -0.08 1.36 -0.24 s0.67668 -0.37334 0.91002 -0.64 s0.39668 -0.58 0.49002 -0.94 s0.14 -0.73334 0.14 -1.12 c0 -0.45334 -0.08334 -0.85 -0.25 -1.19 s-0.38666 -0.64334 -0.66 -0.91 s-0.59334 -0.50332 -0.96 -0.70998 s-0.75 -0.39 -1.15 -0.55 c-0.64 -0.25334 -1.2 -0.50334 -1.68 -0.75 s-0.87334 -0.52332 -1.18 -0.82998 s-0.53666 -0.66332 -0.69 -1.07 s-0.23 -0.90332 -0.23 -1.49 c0 -1.3333 0.35 -2.3266 1.05 -2.98 s1.7033 -0.98 3.01 -0.98 c1.1333 0 2.03 0.33 2.69 0.99 s0.99 1.65 0.99 2.97 l0 1.1 l-1.12 0 l0 -1.2 c0 -0.41334 -0.05 -0.79668 -0.15 -1.15 s-0.25666 -0.66334 -0.47 -0.93 s-0.48334 -0.47666 -0.81 -0.63 s-0.71666 -0.23 -1.17 -0.23 c-1.0667 0 -1.83 0.28 -2.29 0.84 s-0.67 1.3133 -0.63 2.26 c0.01334 0.41334 0.09 0.76668 0.23 1.06 s0.32666 0.55 0.56 0.77 s0.51334 0.41666 0.84 0.59 s0.69 0.34668 1.09 0.52002 c0.46666 0.2 0.93 0.41334 1.39 0.64 s0.89 0.50666 1.29 0.84 c0.4 0.34666 0.73 0.75 0.99 1.21 s0.39 1.03 0.39 1.71 c0 1.32 -0.33666 2.31 -1.01 2.97 s-1.61 0.99 -2.81 0.99 z M61.65800000000001 20.18 c-0.65334 0 -1.2335 -0.086738 -1.7401 -0.26008 s-0.93332 -0.45 -1.28 -0.83 s-0.60332 -0.87666 -0.76998 -1.49 s-0.23666 -1.3533 -0.21 -2.22 l1.2 0 c0 0.42666 0.02 0.87 0.06 1.33 s0.14666 0.88 0.32 1.26 s0.43668 0.69 0.79002 0.93 s0.84334 0.36 1.47 0.36 c0.53334 0 0.98668 -0.08 1.36 -0.24 s0.67668 -0.37334 0.91002 -0.64 s0.39668 -0.58 0.49002 -0.94 s0.14 -0.73334 0.14 -1.12 c0 -0.45334 -0.08334 -0.85 -0.25 -1.19 s-0.38666 -0.64334 -0.66 -0.91 s-0.59334 -0.50332 -0.96 -0.70998 s-0.75 -0.39 -1.15 -0.55 c-0.64 -0.25334 -1.2 -0.50334 -1.68 -0.75 s-0.87334 -0.52332 -1.18 -0.82998 s-0.53666 -0.66332 -0.69 -1.07 s-0.23 -0.90332 -0.23 -1.49 c0 -1.3333 0.35 -2.3266 1.05 -2.98 s1.7033 -0.98 3.01 -0.98 c1.1333 0 2.03 0.33 2.69 0.99 s0.99 1.65 0.99 2.97 l0 1.1 l-1.12 0 l0 -1.2 c0 -0.41334 -0.05 -0.79668 -0.15 -1.15 s-0.25666 -0.66334 -0.47 -0.93 s-0.48334 -0.47666 -0.81 -0.63 s-0.71666 -0.23 -1.17 -0.23 c-1.0667 0 -1.83 0.28 -2.29 0.84 s-0.67 1.3133 -0.63 2.26 c0.01334 0.41334 0.09 0.76668 0.23 1.06 s0.32666 0.55 0.56 0.77 s0.51334 0.41666 0.84 0.59 s0.69 0.34668 1.09 0.52002 c0.46666 0.2 0.93 0.41334 1.39 0.64 s0.89 0.50666 1.29 0.84 c0.4 0.34666 0.73 0.75 0.99 1.21 s0.39 1.03 0.39 1.71 c0 1.32 -0.33666 2.31 -1.01 2.97 s-1.61 0.99 -2.81 0.99 z M73.94400000000002 20 l0 -15 l1.28 0 l0 15 l-1.28 0 z M82.677 20.18 c-0.65334 0 -1.2335 -0.086738 -1.7401 -0.26008 s-0.93332 -0.45 -1.28 -0.83 s-0.60332 -0.87666 -0.76998 -1.49 s-0.23666 -1.3533 -0.21 -2.22 l1.2 0 c0 0.42666 0.02 0.87 0.06 1.33 s0.14666 0.88 0.32 1.26 s0.43668 0.69 0.79002 0.93 s0.84334 0.36 1.47 0.36 c0.53334 0 0.98668 -0.08 1.36 -0.24 s0.67668 -0.37334 0.91002 -0.64 s0.39668 -0.58 0.49002 -0.94 s0.14 -0.73334 0.14 -1.12 c0 -0.45334 -0.08334 -0.85 -0.25 -1.19 s-0.38666 -0.64334 -0.66 -0.91 s-0.59334 -0.50332 -0.96 -0.70998 s-0.75 -0.39 -1.15 -0.55 c-0.64 -0.25334 -1.2 -0.50334 -1.68 -0.75 s-0.87334 -0.52332 -1.18 -0.82998 s-0.53666 -0.66332 -0.69 -1.07 s-0.23 -0.90332 -0.23 -1.49 c0 -1.3333 0.35 -2.3266 1.05 -2.98 s1.7033 -0.98 3.01 -0.98 c1.1333 0 2.03 0.33 2.69 0.99 s0.99 1.65 0.99 2.97 l0 1.1 l-1.12 0 l0 -1.2 c0 -0.41334 -0.05 -0.79668 -0.15 -1.15 s-0.25666 -0.66334 -0.47 -0.93 s-0.48334 -0.47666 -0.81 -0.63 s-0.71666 -0.23 -1.17 -0.23 c-1.0667 0 -1.83 0.28 -2.29 0.84 s-0.67 1.3133 -0.63 2.26 c0.01334 0.41334 0.09 0.76668 0.23 1.06 s0.32666 0.55 0.56 0.77 s0.51334 0.41666 0.84 0.59 s0.69 0.34668 1.09 0.52002 c0.46666 0.2 0.93 0.41334 1.39 0.64 s0.89 0.50666 1.29 0.84 c0.4 0.34666 0.73 0.75 0.99 1.21 s0.39 1.03 0.39 1.71 c0 1.32 -0.33666 2.31 -1.01 2.97 s-1.61 0.99 -2.81 0.99 z M96.12300000000002 6.140000000000001 l0 6.06 l6.02 0 l0 1.06 l-6.02 0 l0 6.74 l-1.16 0 l0 -15 l7.28 0 l0 1.14 l-6.12 0 z M112.57600000000002 20 l-3.3 -6.22 l-3.06 0 l0 6.22 l-0.98 0 l0 -15 l3.4 0 c0.78666 0 1.46 0.11666 2.02 0.35 s1.02 0.55 1.38 0.95 s0.62666 0.86334 0.8 1.39 s0.26 1.0767 0.26 1.65 c0 0.97334 -0.25 1.85 -0.75 2.63 s-1.1567 1.35 -1.97 1.71 l3.52 6.32 l-1.32 0 z M108.49600000000002 5.92 l-2.28 -0.000019531 l0 6.84 l2.42 0 c0.68 0 1.24 -0.10334 1.68 -0.31 s0.78334 -0.47332 1.03 -0.79998 s0.42 -0.7 0.52 -1.12 s0.15 -0.85 0.15 -1.29 c0 -0.46666 -0.08 -0.9 -0.24 -1.3 s-0.39 -0.75 -0.69 -1.05 s-0.66666 -0.53666 -1.1 -0.71 s-0.93 -0.26 -1.49 -0.26 z M116.94900000000001 20 l0 -15 l7.36 0 l0 1.16 l-6.32 0 l0 5.7 l6.26 0 l0 0.92 l-6.26 0 l0 6.06 l6.46 0 l0 1.16 l-7.5 0 z M135.202 20 l-1.1 -4.42 l-4.88 0 l-1.1 4.42 l-1 0 l4.14 -15 l0.86 0 l4.12 15 l-1.04 0 z M131.722 5.9399999999999995 l-2.26 8.68 l4.38 0 z M145.415 20 l-3.52 -8.14 l-2.04 3.06 l0 5.08 l-1 0 l0 -15 l1 0 l0 7.9 l5.08 -7.9 l1.24 0 l-3.52 6.1 l3.92 8.9 l-1.16 0 z M149.66799999999998 20 l0 -15 l1.28 0 l0 15 l-1.28 0 z M161.62099999999998 20 l-5.8 -12.88 l0 12.88 l-1.1 0 l0 -15 l1.18 0 l5.8 12.3 l0.14 -12.3 l1.08 0 l0 15 l-1.3 0 z M170.07399999999998 20.18 c-1.2667 0 -2.2134 -0.33334 -2.84 -1 s-0.94 -1.6533 -0.94 -2.96 l0 -7.4 c0 -1.3333 0.31334 -2.3266 0.94 -2.98 s1.64 -0.98 3.04 -0.98 c1.32 0 2.2866 0.33 2.9 0.99 s0.92 1.6367 0.92 2.93 l0 1.08 l-1.08 0 l0 -1.28 c0 -0.33334 -0.04 -0.67 -0.12 -1.01 s-0.22334 -0.65 -0.43 -0.93 s-0.49 -0.50666 -0.85 -0.68 s-0.82 -0.26 -1.38 -0.26 s-1.0233 0.07666 -1.39 0.23 s-0.66 0.37 -0.88 0.65 s-0.37666 0.61 -0.47 0.99 s-0.14 0.79666 -0.14 1.25 l0 7.48 c0 0.46666 0.04666 0.88332 0.14 1.25 s0.25 0.67666 0.47 0.93 s0.50666 0.44668 0.86 0.58002 s0.78334 0.2 1.29 0.2 c0.56 0 1.0267 -0.07 1.4 -0.21 s0.67334 -0.33666 0.9 -0.59 s0.39 -0.56 0.49 -0.92 s0.15 -0.75334 0.15 -1.18 l0 -2.94 l-3.14 -0.02 l0 -0.98 l4.18 0.02 l0 3.78 c0 1.32 -0.30666 2.31 -0.92 2.97 s-1.6467 0.99 -3.1 0.99 z"></path></g></svg>